<svg width="20" height="20" viewBox="0 0 20 20" fill="none" xmlns="http://www.w3.org/2000/svg">
<path fill-rule="evenodd" clip-rule="evenodd" d="M18 3C19.1046 3 20 3.89543 20 5V15C20 16.1046 19.1046 17 18 17H2C0.89543 17 0 16.1046 0 15V5C0 3.89543 0.89543 3 2 3H18ZM18 4H2C1.44772 4 1 4.44772 1 5V15C1 15.5523 1.44772 16 2 16H18C18.5523 16 19 15.5523 19 15V5C19 4.44772 18.5523 4 18 4ZM12.5 14V10.4645H8.70711L10.0355 11.7929C10.2308 11.9881 10.2308 12.3047 10.0355 12.5C9.84027 12.6952 9.52369 12.6952 9.32843 12.5L7.14645 10.318C6.95118 10.1227 6.95118 9.80616 7.14645 9.6109L9.32843 7.42892C9.52369 7.23365 9.84027 7.23365 10.0355 7.42892C10.2308 7.62418 10.2308 7.94076 10.0355 8.13602L8.70711 9.46445H12.5V6H16.5V14H12.5ZM7 7H4V13H7V14H3V6H7V7Z" fill="black"/>
</svg>
